<svg xmlns="http://www.w3.org/2000/svg" xml:space="preserve" width="497.7865" height="187.10265" viewBox="0 0 497.78652 187.10264"><defs><clipPath id="a" clipPathUnits="userSpaceOnUse"><path d="M467.456-327.625c-5.11 5.108-5.11 13.392 0 18.5 5.108 5.11 13.39 5.11 18.5 0 5.11-5.108 5.11-13.392.001-18.502a13.04 13.04 0 0 0-9.25-3.83 13.038 13.038 0 0 0-9.25 3.832"/></clipPath><clipPath id="b" clipPathUnits="userSpaceOnUse"><path d="M-1.35-1.074h2.687v2.673H-1.35Z"/></clipPath><clipPath id="c" clipPathUnits="userSpaceOnUse"><path d="M-1.35-1.074h2.687v2.673H-1.35Z"/></clipPath><radialGradient id="d" cx="0" cy="0" r="1" fx="-0.0068799998" fy="0.04073" gradientUnits="userSpaceOnUse" spreadMethod="pad"><stop offset="0" style="stop-opacity:1;stop-color:#fff"/><stop offset="1" style="stop-opacity:1;stop-color:#e70"/></radialGradient></defs><path d="M510.574 293.428c2.817 3.747 2.14 9.503-1.757 13.402-4.217 4.22-10.614 4.665-14.285.997-16.02-16.021-33.184-17.32-43.875-5.514.162-.756.286-1.503.39-2.249 1.096-5.11 3.48-9.76 7.204-13.488a25.892 25.892 0 0 1 6.832-4.894c14.554-4.46 30.598-2.567 43.847 10.103a8.05 8.05 0 0 1 1.644 1.643" style="fill:#4f4c4d;fill-opacity:1;fill-rule:nonzero;stroke:none" transform="matrix(1.33333 0 0 -1.33333 -185.275 476.677)"/><g clip-path="url(#a)" transform="matrix(1.33333 0 0 1.33333 -185.275 476.677)"><g clip-path="url(#b)" transform="rotate(38 705.283 535.44) scale(14.70379)"><g clip-path="url(#c)"><path d="M-1.35-1.074h2.687v2.673H-1.35Z" style="fill:url(#d);stroke:none"/></g></g></g><path d="M458.251 286.576c-12.56 12.562-9.862 35.623 6.022 51.507 3.67 3.67 2.805 10.487-1.93 15.222-4.736 4.734-11.548 5.6-15.22 1.928-17.296-17.295-17.296-45.339 0-62.635a44.096 44.096 0 0 1 17.96-10.918 25.944 25.944 0 0 0-6.832 4.896" style="fill:#f36717;fill-opacity:1;fill-rule:nonzero;stroke:none" transform="matrix(1.33333 0 0 -1.33333 -185.275 476.677)"/><path d="M145.726 230.312v-10.49h5.82c.465 0 .821-.113 1.07-.343a1.13 1.13 0 0 0 .372-.864c0-.354-.123-.64-.367-.86-.246-.219-.603-.33-1.074-.33h-6.934c-.625 0-1.075.141-1.348.424-.276.28-.411.736-.411 1.366v11.097c0 .59.13 1.032.391 1.326.262.295.605.442 1.03.442.433 0 .78-.145 1.05-.436.266-.292.4-.736.4-1.332M164.205 224.67c0 1.055-.167 1.969-.504 2.741-.334.775-.814 1.359-1.435 1.754-.621.397-1.336.596-2.142.596a3.81 3.81 0 0 1-1.591-.33 3.506 3.506 0 0 1-1.257-.955c-.35-.421-.628-.958-.832-1.61-.203-.651-.304-1.384-.304-2.196 0-.82.101-1.56.304-2.222.204-.662.491-1.21.86-1.644.372-.44.796-.764 1.278-.98a3.798 3.798 0 0 1 1.58-.325c.736 0 1.411.187 2.027.562.615.373 1.104.949 1.47 1.729.363.78.546 1.74.546 2.88m-4.081 7.41c1.47 0 2.731-.302 3.785-.91 1.056-.604 1.853-1.466 2.395-2.583.542-1.117.811-2.43.811-3.939 0-1.112-.148-2.124-.444-3.036-.298-.909-.741-1.7-1.335-2.368a5.85 5.85 0 0 0-2.185-1.533c-.864-.354-1.854-.53-2.969-.53-1.108 0-2.102.182-2.98.544-.874.364-1.607.876-2.194 1.54-.585.66-1.03 1.457-1.33 2.386a9.824 9.824 0 0 0-.449 3.019c0 1.107.157 2.123.47 3.046.313.925.764 1.713 1.358 2.36a5.89 5.89 0 0 0 2.166 1.49c.85.343 1.818.514 2.9.514M181.65 221.977c0-.458-.11-.955-.334-1.49-.223-.534-.571-1.058-1.049-1.573-.477-.514-1.086-.93-1.827-1.252-.743-.321-1.606-.481-2.593-.481-.75 0-1.428.071-2.04.215a5.688 5.688 0 0 0-1.668.672 5.738 5.738 0 0 0-1.378 1.205 7.155 7.155 0 0 0-.957 1.519 8.097 8.097 0 0 0-.595 1.794 9.959 9.959 0 0 0-.198 2.025c0 1.16.166 2.199.498 3.117.331.917.807 1.7 1.426 2.352a6.234 6.234 0 0 0 2.176 1.49c.831.341 1.718.51 2.66.51 1.146 0 2.167-.232 3.064-.696.896-.465 1.583-1.041 2.06-1.727.478-.684.716-1.33.716-1.941a1.27 1.27 0 0 0-.349-.883 1.092 1.092 0 0 0-.84-.386c-.369 0-.643.09-.828.267-.183.178-.387.481-.613.916-.375.712-.814 1.247-1.32 1.6-.507.355-1.13.53-1.871.53-1.18 0-2.12-.454-2.82-1.364-.699-.912-1.048-2.206-1.048-3.884 0-1.12.154-2.052.463-2.796.31-.742.75-1.3 1.316-1.667.566-.365 1.232-.55 1.99-.55.827 0 1.525.209 2.095.625.571.416 1 1.027 1.292 1.834.122.378.274.688.453.927.181.24.47.36.871.36.343 0 .635-.122.88-.364.244-.243.368-.545.368-.904M187.617 223.058h4.236l-2.138 5.946-2.098-5.946zm5.685-4-.675 1.806h-5.765l-.676-1.844c-.265-.723-.49-1.21-.677-1.462-.187-.251-.494-.377-.92-.377-.36 0-.679.132-.956.401-.278.27-.416.574-.416.915 0 .197.032.4.096.61.064.208.17.5.32.874l3.626 9.356.372.97c.145.376.3.69.464.94.165.246.38.45.648.603.268.154.598.23.992.23.4 0 .733-.076 1-.23.267-.154.483-.352.648-.595.165-.243.304-.502.416-.781.113-.28.256-.65.431-1.116l3.704-9.297c.29-.71.434-1.223.434-1.544 0-.334-.137-.64-.411-.918a1.343 1.343 0 0 0-.992-.418c-.225 0-.418.04-.58.123-.16.08-.296.193-.405.332-.11.142-.227.36-.354.65-.125.291-.233.549-.324.772M201.291 230.312v-10.49h5.821c.464 0 .82-.113 1.07-.343a1.13 1.13 0 0 0 .372-.864c0-.354-.124-.64-.368-.86-.246-.219-.603-.33-1.074-.33h-6.933c-.625 0-1.075.141-1.349.424-.274.28-.411.736-.411 1.366v11.097c0 .59.13 1.032.391 1.326.262.295.606.442 1.03.442.432 0 .78-.145 1.05-.436.267-.292.401-.736.401-1.332M223.86 229.585h-5.656v-3.687h4.728c.44 0 .765-.1.981-.3.216-.2.325-.467.325-.8 0-.334-.11-.6-.33-.796-.22-.196-.544-.295-.976-.295h-4.728v-4.746c0-.606-.135-1.052-.402-1.344-.269-.292-.611-.436-1.03-.436-.425 0-.772.147-1.04.441-.268.297-.4.74-.4 1.339v11.085c0 .42.06.762.182 1.027.123.266.315.457.576.58.261.123.594.181 1 .181h6.77c.458 0 .798-.103 1.021-.308.222-.208.333-.476.333-.812 0-.34-.111-.614-.333-.82-.223-.207-.563-.309-1.02-.309M227.467 218.96v11.352c0 .588.132 1.032.397 1.326.265.295.605.444 1.025.444.432 0 .782-.147 1.048-.44.269-.291.402-.734.402-1.33V218.96c0-.598-.133-1.042-.401-1.338-.267-.294-.617-.441-1.05-.441-.411 0-.752.15-1.019.446-.267.299-.402.743-.402 1.333M237.292 230.332l5.521-8.493v8.57c0 .559.119.975.354 1.254.235.278.553.417.952.417.414 0 .738-.139.977-.417.24-.28.359-.695.359-1.254v-11.332c0-1.264-.517-1.896-1.548-1.896a2 2 0 0 0-.697.113c-.206.073-.399.195-.579.357a3.55 3.55 0 0 0-.503.577c-.155.218-.31.443-.465.672l-5.386 8.393v-8.442c0-.551-.126-.966-.377-1.248a1.243 1.243 0 0 0-.968-.422c-.404 0-.73.142-.975.427-.246.286-.368.699-.368 1.243v11.116c0 .472.051.842.155 1.11.122.297.325.536.61.724.282.186.59.28.918.28.257 0 .478-.042.662-.129.183-.083.345-.2.483-.343.138-.144.28-.33.426-.56l.45-.717M251.72 223.058h4.237l-2.137 5.946-2.1-5.946zm5.687-4-.678 1.806h-5.763l-.676-1.844c-.265-.723-.49-1.21-.678-1.462-.186-.251-.492-.377-.918-.377-.361 0-.68.132-.957.401-.277.27-.416.574-.416.915 0 .197.032.4.097.61.064.208.17.5.319.874l3.626 9.356c.103.271.228.594.373.97.143.376.3.69.464.94.164.246.38.45.648.603.266.154.598.23.991.23.4 0 .733-.076 1.001-.23.267-.154.483-.352.647-.595.165-.243.303-.502.416-.781.113-.28.256-.65.432-1.116l3.703-9.297c.29-.71.435-1.223.435-1.544 0-.334-.138-.64-.411-.918a1.345 1.345 0 0 0-.992-.418c-.226 0-.418.04-.58.123a1.19 1.19 0 0 0-.406.332 3.14 3.14 0 0 0-.353.65c-.126.291-.234.549-.324.772M266.323 230.332l5.522-8.493v8.57c0 .559.117.975.353 1.254.236.278.552.417.952.417.413 0 .74-.139.977-.417.239-.28.358-.695.358-1.254v-11.332c0-1.264-.516-1.896-1.548-1.896-.256 0-.489.037-.694.113-.207.073-.401.195-.58.357a3.48 3.48 0 0 0-.504.577c-.155.218-.31.443-.465.672l-5.386 8.393v-8.442c0-.551-.125-.966-.377-1.248a1.237 1.237 0 0 0-.967-.422c-.407 0-.732.142-.977.427-.245.286-.368.699-.368 1.243v11.116c0 .472.052.842.156 1.11.121.297.325.536.61.724.282.186.59.28.917.28.258 0 .48-.042.664-.129.182-.083.343-.2.482-.343.14-.144.28-.33.426-.56.146-.229.295-.469.45-.717M289.707 221.977c0-.458-.113-.955-.334-1.49-.224-.534-.572-1.058-1.05-1.573-.477-.514-1.086-.93-1.826-1.252-.743-.321-1.606-.481-2.593-.481-.75 0-1.428.071-2.04.215a5.686 5.686 0 0 0-1.669.672 5.696 5.696 0 0 0-1.377 1.205 7.14 7.14 0 0 0-.958 1.519 8.122 8.122 0 0 0-.595 1.794 9.959 9.959 0 0 0-.198 2.025c0 1.16.166 2.199.498 3.117.332.917.807 1.7 1.426 2.352a6.232 6.232 0 0 0 2.176 1.49c.832.341 1.718.51 2.66.51 1.147 0 2.168-.232 3.065-.696.897-.465 1.582-1.041 2.06-1.727.478-.684.716-1.33.716-1.941a1.27 1.27 0 0 0-.35-.883 1.092 1.092 0 0 0-.84-.386c-.368 0-.643.09-.827.267-.184.178-.388.481-.613.916-.375.712-.814 1.247-1.32 1.6-.507.355-1.131.53-1.871.53-1.181 0-2.121-.454-2.82-1.364-.7-.912-1.049-2.206-1.049-3.884 0-1.12.154-2.052.464-2.796.31-.742.748-1.3 1.315-1.667.567-.365 1.232-.55 1.992-.55.825 0 1.523.209 2.094.625.571.416 1 1.027 1.292 1.834.12.378.273.688.453.927.18.24.47.36.871.36.342 0 .634-.122.88-.364.244-.243.368-.545.368-.904M301.63 229.585h-6.471v-3.54h5.958c.438 0 .765-.1.98-.298.217-.201.324-.465.324-.792 0-.328-.106-.596-.317-.802-.214-.205-.543-.307-.987-.307h-5.958v-4.1h6.693c.45 0 .79-.106 1.02-.32.23-.213.342-.495.342-.85 0-.34-.113-.619-.342-.83-.23-.215-.57-.32-1.02-.32h-7.804c-.626 0-1.076.14-1.35.423-.274.28-.413.737-.413 1.366v10.83c0 .42.064.763.186 1.028.123.266.314.457.575.58.262.123.596.181 1.002.181h7.581c.458 0 .797-.103 1.019-.308.224-.208.335-.476.335-.812 0-.34-.11-.614-.335-.82-.222-.207-.56-.309-1.019-.309M313.833 223.058h4.236l-2.137 5.946-2.1-5.946zm5.686-4-.678 1.806h-5.763l-.676-1.844c-.265-.723-.49-1.21-.677-1.462-.187-.251-.494-.377-.918-.377-.363 0-.68.132-.958.401-.278.27-.416.574-.416.915 0 .197.031.4.097.61.064.208.17.5.319.874l3.626 9.356c.103.271.228.594.373.97.144.376.299.69.464.94.164.246.38.45.648.603.266.154.598.23.99.23.4 0 .734-.076 1.001-.23a1.91 1.91 0 0 0 .647-.595c.166-.243.304-.502.417-.781.112-.28.256-.65.431-1.116l3.704-9.297c.29-.71.434-1.223.434-1.544 0-.334-.137-.64-.41-.918a1.345 1.345 0 0 0-.992-.418c-.225 0-.418.04-.58.123-.163.08-.296.193-.406.332a3.14 3.14 0 0 0-.353.65c-.126.291-.235.549-.324.772M335.465 221.751c0-.872-.22-1.655-.662-2.349-.442-.695-1.089-1.239-1.939-1.632-.851-.393-1.86-.59-3.026-.59-1.4 0-2.553.27-3.462.806a4.631 4.631 0 0 0-1.571 1.547c-.403.647-.605 1.275-.605 1.885 0 .353.12.656.362.906.243.253.55.38.924.38.302 0 .56-.098.77-.296.207-.196.386-.488.536-.873a5.73 5.73 0 0 1 .585-1.151 2.39 2.39 0 0 1 .884-.762c.38-.2.88-.299 1.497-.299.854 0 1.544.2 2.076.605.533.401.798.904.798 1.509 0 .476-.143.866-.431 1.164-.285.298-.657.525-1.111.683-.454.157-1.062.325-1.823.502-1.019.241-1.871.526-2.557.85-.689.324-1.232.767-1.636 1.326-.402.561-.603 1.258-.603 2.09 0 .793.213 1.496.637 2.112.426.615 1.042 1.09 1.849 1.42.805.332 1.752.498 2.842.498.87 0 1.622-.111 2.257-.332.636-.217 1.163-.509 1.581-.873.42-.363.727-.745.92-1.145.192-.401.288-.79.288-1.17 0-.347-.119-.659-.361-.938a1.145 1.145 0 0 0-.904-.417c-.33 0-.58.081-.75.25-.171.167-.356.441-.555.821-.259.543-.567.968-.93 1.272-.36.304-.94.458-1.74.458-.743 0-1.34-.166-1.793-.496-.455-.332-.682-.73-.682-1.196 0-.288.077-.537.232-.746.154-.212.367-.39.638-.54.27-.151.546-.27.823-.354.276-.086.733-.212 1.373-.373a21.998 21.998 0 0 0 2.17-.63c.648-.23 1.2-.508 1.655-.836a3.439 3.439 0 0 0 1.063-1.243c.254-.501.381-1.115.381-1.843M348.675 221.751c0-.872-.22-1.655-.662-2.349-.443-.695-1.089-1.239-1.939-1.632-.851-.393-1.86-.59-3.026-.59-1.4 0-2.553.27-3.462.806a4.652 4.652 0 0 0-1.572 1.547c-.403.647-.605 1.275-.605 1.885 0 .353.121.656.363.906.242.253.55.38.924.38.303 0 .558-.098.768-.296.21-.196.388-.488.538-.873.18-.46.374-.843.585-1.151.209-.307.503-.562.884-.762.381-.2.88-.299 1.499-.299.851 0 1.544.2 2.074.605.533.401.798.904.798 1.509 0 .476-.144.866-.431 1.164-.285.298-.657.525-1.111.683-.455.157-1.062.325-1.823.502-1.019.241-1.872.526-2.558.85-.687.324-1.231.767-1.635 1.326-.402.561-.603 1.258-.603 2.09 0 .793.213 1.496.638 2.112.425.615 1.041 1.09 1.848 1.42.805.332 1.751.498 2.841.498.871 0 1.624-.111 2.258-.332.635-.217 1.163-.509 1.582-.873.419-.363.725-.745.919-1.145.192-.401.29-.79.29-1.17 0-.347-.121-.659-.363-.938a1.147 1.147 0 0 0-.904-.417c-.33 0-.58.081-.75.25-.171.167-.356.441-.556.821-.258.543-.566.968-.928 1.272-.361.304-.942.458-1.742.458-.741 0-1.34-.166-1.793-.496-.454-.332-.682-.73-.682-1.196 0-.288.078-.537.233-.746.155-.212.366-.39.638-.54.27-.151.545-.27.823-.354.276-.086.734-.212 1.372-.373a21.943 21.943 0 0 0 2.172-.63c.647-.23 1.2-.508 1.653-.836a3.434 3.434 0 0 0 1.063-1.243c.255-.501.382-1.115.382-1.843M361.429 224.67c0 1.055-.166 1.969-.503 2.741-.335.775-.815 1.359-1.435 1.754-.622.397-1.336.596-2.142.596-.574 0-1.105-.11-1.59-.33a3.504 3.504 0 0 1-1.258-.955c-.351-.421-.628-.958-.831-1.61-.204-.651-.306-1.384-.306-2.196 0-.82.102-1.56.306-2.222.203-.662.49-1.21.858-1.644a3.59 3.59 0 0 1 1.278-.98 3.803 3.803 0 0 1 1.582-.325c.734 0 1.41.187 2.025.562.616.373 1.106.949 1.47 1.729.364.78.546 1.74.546 2.88m-4.08 7.41c1.47 0 2.732-.302 3.785-.91a5.845 5.845 0 0 0 2.395-2.583c.54-1.117.81-2.43.81-3.939 0-1.112-.147-2.124-.443-3.036-.297-.909-.74-1.7-1.334-2.368a5.85 5.85 0 0 0-2.187-1.533c-.864-.354-1.854-.53-2.968-.53-1.108 0-2.102.182-2.98.544-.875.364-1.607.876-2.194 1.54-.587.66-1.03 1.457-1.33 2.386a9.78 9.78 0 0 0-.45 3.019c0 1.107.156 2.123.47 3.046.312.925.764 1.713 1.358 2.36a5.899 5.899 0 0 0 2.167 1.49c.85.343 1.817.514 2.901.514M378.876 221.977c0-.458-.112-.955-.334-1.49-.223-.534-.572-1.058-1.049-1.573-.477-.514-1.086-.93-1.828-1.252-.741-.321-1.605-.481-2.591-.481a8.88 8.88 0 0 0-2.04.215 5.686 5.686 0 0 0-1.669.672 5.69 5.69 0 0 0-1.378 1.205 7.18 7.18 0 0 0-.958 1.519 8.045 8.045 0 0 0-.594 1.794 9.959 9.959 0 0 0-.198 2.025c0 1.16.165 2.199.498 3.117.332.917.807 1.7 1.426 2.352a6.228 6.228 0 0 0 2.175 1.49c.831.341 1.72.51 2.66.51 1.148 0 2.169-.232 3.064-.696.898-.465 1.584-1.041 2.062-1.727.476-.684.714-1.33.714-1.941a1.27 1.27 0 0 0-.347-.883 1.094 1.094 0 0 0-.842-.386c-.367 0-.642.09-.826.267-.184.178-.388.481-.613.916-.375.712-.814 1.247-1.322 1.6-.505.355-1.13.53-1.87.53-1.18 0-2.12-.454-2.82-1.364-.7-.912-1.048-2.206-1.048-3.884 0-1.12.153-2.052.464-2.796.308-.742.747-1.3 1.315-1.667.566-.365 1.231-.55 1.991-.55.826 0 1.523.209 2.095.625.571.416 1 1.027 1.29 1.834.123.378.275.688.455.927.18.24.47.36.87.36.342 0 .635-.122.88-.364.243-.243.368-.545.368-.904M381.573 218.96v11.352c0 .588.131 1.032.397 1.326a1.31 1.31 0 0 0 1.024.444c.433 0 .782-.147 1.05-.44.267-.291.401-.734.401-1.33V218.96c0-.598-.134-1.042-.402-1.338-.267-.294-.616-.441-1.05-.441-.412 0-.752.15-1.018.446-.268.299-.402.743-.402 1.333M391.04 223.058h4.236l-2.138 5.946-2.098-5.946zm5.686-4-.678 1.806h-5.763l-.677-1.844c-.264-.723-.49-1.21-.676-1.462-.187-.251-.493-.377-.918-.377-.363 0-.681.132-.958.401-.277.27-.416.574-.416.915 0 .197.031.4.097.61.064.208.17.5.319.874l3.627 9.356c.102.271.227.594.37.97.146.376.301.69.466.94.163.246.38.45.648.603.266.154.598.23.992.23.4 0 .732-.076 1-.23.267-.154.483-.352.648-.595.163-.243.302-.502.416-.781.111-.28.256-.65.43-1.116l3.704-9.297c.29-.71.435-1.223.435-1.544 0-.334-.138-.64-.412-.918a1.344 1.344 0 0 0-.99-.418c-.226 0-.42.04-.581.123-.162.08-.296.193-.406.332a3.18 3.18 0 0 0-.354.65c-.125.291-.234.549-.323.772M409.366 229.427h-3.134V218.96c0-.604-.132-1.05-.396-1.343-.264-.292-.606-.436-1.025-.436-.426 0-.772.147-1.04.441-.268.296-.402.74-.402 1.338v10.467h-3.132c-.49 0-.854.11-1.093.328-.239.22-.358.51-.358.872 0 .373.124.668.373.884.247.216.606.323 1.078.323h9.129c.495 0 .865-.11 1.106-.334.242-.222.363-.514.363-.873 0-.361-.123-.652-.368-.872-.244-.218-.612-.328-1.101-.328M412.654 218.96v11.352c0 .588.13 1.032.397 1.326.264.295.605.444 1.023.444.433 0 .782-.147 1.05-.44.268-.291.402-.734.402-1.33V218.96c0-.598-.134-1.042-.402-1.338-.268-.294-.617-.441-1.05-.441-.41 0-.752.15-1.018.446-.269.299-.402.743-.402 1.333M429.054 224.67c0 1.055-.167 1.969-.503 2.741-.335.775-.814 1.359-1.435 1.754-.623.397-1.338.596-2.143.596-.573 0-1.104-.11-1.59-.33a3.503 3.503 0 0 1-1.258-.955c-.35-.421-.628-.958-.832-1.61-.203-.651-.304-1.384-.304-2.196 0-.82.101-1.56.304-2.222.204-.662.491-1.21.861-1.644.37-.44.796-.764 1.277-.98a3.802 3.802 0 0 1 1.58-.325c.736 0 1.411.187 2.027.562.615.373 1.106.949 1.469 1.729.365.78.547 1.74.547 2.88m-4.081 7.41c1.47 0 2.732-.302 3.786-.91a5.837 5.837 0 0 0 2.393-2.583c.542-1.117.812-2.43.812-3.939 0-1.112-.148-2.124-.443-3.036-.3-.909-.743-1.7-1.335-2.368a5.84 5.84 0 0 0-2.186-1.533c-.864-.354-1.854-.53-2.968-.53-1.11 0-2.103.182-2.98.544-.875.364-1.608.876-2.193 1.54-.588.66-1.031 1.457-1.331 2.386a9.81 9.81 0 0 0-.45 3.019c0 1.107.156 2.123.47 3.046.314.925.765 1.713 1.358 2.36a5.893 5.893 0 0 0 2.165 1.49c.852.343 1.82.514 2.902.514M438.163 230.332l5.523-8.493v8.57c0 .559.116.975.352 1.254.234.278.553.417.952.417.413 0 .739-.139.978-.417.238-.28.357-.695.357-1.254v-11.332c0-1.264-.516-1.896-1.548-1.896-.256 0-.489.037-.695.113-.206.073-.4.195-.58.357-.18.165-.35.357-.504.577-.154.218-.31.443-.465.672l-5.386 8.393v-8.442c0-.551-.126-.966-.376-1.248a1.24 1.24 0 0 0-.967-.422c-.406 0-.732.142-.977.427-.245.286-.368.699-.368 1.243v11.116c0 .472.052.842.155 1.11.122.297.325.536.61.724.283.186.59.28.919.28.256 0 .477-.042.662-.129.183-.083.344-.2.483-.343.138-.144.28-.33.425-.56.145-.229.296-.469.45-.717M168.733 275.847h3.936v-4.835h-3.936v-16.899H163.3v27.167h5.432v-5.433zm-18.717-1.796c-.803 0-1.618-.23-2.448-.69-1.635-.915-2.45-2.419-2.45-4.51 0-.916.23-1.776.687-2.577.946-1.691 2.348-2.535 4.21-2.535.86 0 1.663.23 2.408.688 1.604.973 2.42 2.45 2.45 4.425 0 .887-.217 1.749-.645 2.578-.92 1.746-2.322 2.62-4.212 2.62m19.188-30.76H147.47c-1.711 0-2.639.799-2.783 2.397v10.18h5.436v-7.741h19.08v-4.837zm-11.851 32.13c.172-.173.327-.345.47-.517 1.483-1.63 2.226-3.602 2.226-5.918 0-1.715-.443-3.376-1.327-4.975-1.855-3.317-4.749-4.977-8.685-4.977-1.882 0-3.565.402-5.05 1.202-1.596.886-2.864 2.145-3.805 3.775-.885 1.544-1.328 3.173-1.328 4.888 0 2.46.915 4.633 2.74 6.522h-3.638v4.749h8.3v2.182h5.433v-2.182h8.343v-4.75h-3.679zM197.439 263.397v12.62h-19.166v4.837h24.6v-17.457h-5.434zm5.648-4.962v-15.573h-5.434v10.824h-19.551v4.749h24.985zm-9.753 2.268v-3.936h-5.435v3.936h-12.492v4.747h30.375v-4.747h-12.449zM239.666 242.862h-5.434v38.418h5.434v-38.418zm-17.882 29.692.342-.258a23.552 23.552 0 0 0 2.696-2.054c2.222-2.024 3.82-4.108 4.79-6.246.685-1.598 1.255-4.165 1.712-7.701v-.599h-5.348v.599c0 3.935-1.702 7.302-5.107 10.097-.285.228-.599.47-.942.728l-3.99-11.424h-5.534l7.076 20.323h-6.392v4.835h19.766v-4.835h-7.872l-1.197-3.465zM273.847 275.847h3.937v-4.835h-3.937v-10.396h-5.432v20.664h5.432v-5.433zm-11.208-20.109c-.94 0-1.782-.186-2.524-.557-1.626-.745-2.44-2.078-2.44-3.997 0-.832.187-1.563.557-2.194.885-1.547 2.354-2.321 4.407-2.321.914 0 1.74.185 2.481.56 1.484.744 2.31 1.918 2.482 3.525.086.829-.03 1.603-.342 2.32-.8 1.777-2.34 2.664-4.62 2.664m0 4.707c1.825.028 3.593-.357 5.304-1.156 3.336-1.567 4.977-4.276 4.921-8.128-.058-1.51-.386-2.88-.985-4.106-1.683-3.48-4.763-5.203-9.24-5.177-1.684 0-3.181.286-4.492.855-3.738 1.54-5.648 4.348-5.733 8.428-.028 1.398.2 2.652.684 3.766.797 1.797 2.096 3.178 3.893 4.15 1.739.911 3.622 1.368 5.647 1.368m-12.492 6.929h9.113v4.537h-9.113v-4.537zm0 9.286h9.113v4.405h5.261v-18.437h-16.984c-1.626 0-2.51.766-2.651 2.306v16.131h5.261v-4.405zM303.54 274.735h1.882v6.46h5.177v-38.249h-5.177v27.34h-1.882v-27.34h-5.091v38.248h5.091v-6.459zm-13.69-2.662c.057-.057.128-.113.214-.172.569-.485 1.14-1.029 1.71-1.629 2.026-2.115 3.451-4.373 4.28-6.773.54-1.517.967-3.889 1.283-7.115v-.602h-5.092v.599c0 4.079-1.326 7.429-3.979 10.055l-2.91-10.654h-5.26l5.69 20.537h-5.048v4.448h16.17v-4.448h-5.903l-1.155-4.246zM344.781 260.616h-5.433v8.898H334.3v4.836h5.048v6.93h5.433v-20.664zm-11.21-4.878c-.769 0-1.554-.186-2.353-.557-1.71-.774-2.566-2.108-2.566-3.997 0-.833.242-1.621.728-2.365.968-1.434 2.366-2.15 4.192-2.15a5.24 5.24 0 0 1 2.395.56c1.712.83 2.568 2.149 2.568 3.955 0 .859-.242 1.66-.728 2.406-.94 1.432-2.352 2.148-4.235 2.148m.043 4.707c1.682 0 3.393-.413 5.134-1.24 1.54-.77 2.78-1.91 3.722-3.423a8.617 8.617 0 0 0 1.325-4.62c0-1.626-.442-3.153-1.325-4.578-1.94-3.138-4.89-4.706-8.856-4.706-1.855 0-3.58.427-5.176 1.284-3.368 1.796-5.048 4.464-5.048 8 0 1.654.441 3.193 1.325 4.62 1.911 3.108 4.878 4.663 8.9 4.663m2.78 1.07h-5.562c-.542 3.136-2.638 5.362-6.29 6.673l-3.507-6.673h-5.776l7.53 14.503h-6.59v4.834h19.766v-4.834h-7.443l-1.754-2.909c1.54-.513 3.024-1.355 4.448-2.525 2.88-2.396 4.607-5.42 5.177-9.07M365.788 255.312c-.8 0-1.583-.215-2.354-.646-1.482-.802-2.21-2.105-2.18-3.912 0-.802.198-1.547.598-2.235.884-1.433 2.195-2.15 3.936-2.15.825 0 1.596.187 2.31.56 1.484.83 2.238 2.105 2.268 3.825a4.9 4.9 0 0 1-.215 1.463c-.684 2.061-2.14 3.095-4.363 3.095m0 4.62c1.652 0 3.294-.413 4.92-1.24 1.482-.742 2.679-1.87 3.592-3.38.886-1.455 1.33-2.982 1.33-4.579 0-1.627-.444-3.137-1.33-4.535-1.882-3.022-4.718-4.535-8.512-4.535-1.74 0-3.367.4-4.878 1.198-3.28 1.74-4.92 4.366-4.92 7.872 0 1.597.442 3.124 1.327 4.579 1.853 3.08 4.677 4.62 8.47 4.62m6.845 4.364v11.722h-19.166v4.836h24.6v-16.558h-5.434zm8.343 1.326v-4.662H350.6v4.662h9.413v6.245h5.432v-6.245h15.53zM410.537 281.195h5.176V242.95h-5.176v38.246zm-6.932-7.316v7.316h5.093V242.95h-5.093v26.48h-4.404v4.45h4.404zm-8.64-1.806c.056-.057.128-.113.213-.172a22.42 22.42 0 0 0 1.713-1.63c2.024-2.114 3.448-4.372 4.276-6.772.544-1.514.97-3.888 1.284-7.117v-.6h-5.091v.599c0 4.079-1.326 7.429-3.978 10.055l-2.91-10.654h-5.262l5.69 20.535h-5.048v4.45h16.17v-4.45h-5.902l-1.156-4.244zM431.93 273.11c-.857 0-1.698-.202-2.525-.603-1.683-.774-2.51-2.065-2.482-3.867 0-.833.214-1.607.642-2.323.969-1.576 2.423-2.364 4.365-2.364.882 0 1.695.215 2.438.647 1.653.915 2.48 2.248 2.48 3.995 0 .83-.228 1.59-.685 2.279-.912 1.49-2.324 2.235-4.233 2.235m-10.996 1.796v4.834h8.257v2.612h5.433v-2.612h8.17v-4.834h-4.66c2.623-1.396 3.949-3.509 3.976-6.333 0-1.653-.456-3.207-1.368-4.66-1.969-3.111-4.906-4.665-8.812-4.665-1.826 0-3.537.414-5.135 1.24-3.422 1.826-5.135 4.492-5.135 8.001 0 2.767 1.242 4.905 3.723 6.417h-4.45zm23.528-22.845h-24.128v4.749h8.813v5.732h5.435v-5.732h9.88v24.471h5.435v-38.418h-5.435v9.198z" style="fill:#4f4c4d;fill-opacity:1;fill-rule:nonzero;stroke:none" transform="matrix(1.33333 0 0 -1.33333 -185.275 476.677)"/></svg>