<svg xmlns="http://www.w3.org/2000/svg" width="4281.5332" height="1502.36" viewBox="0 0 4281.5332 1502.36"><defs><clipPath id="a" clipPathUnits="userSpaceOnUse"><path d="M0 1126.772h3211.152V0H0Z"/></clipPath></defs><path d="M0 0h-112.182v-485.604h344.585v94.552H0z" style="fill:#6b6b6b;fill-opacity:1;fill-rule:nonzero;stroke:none" transform="matrix(1.33333 0 0 -1.33333 1625.426 417.44)"/><g clip-path="url(#a)" transform="matrix(1.33333 0 0 -1.33333 0 1502.36)"><path d="M0 0h91.302v-84.867c-16.779-6.435-49.609-12.882-80.848-12.882-101 0-134.668 51.324-134.668 155.507 0 99.299 32.021 157.853 133.008 157.853 56.084 0 88.16-17.643 114.582-51.282l69.776 64.054C150.664 289.296 76.1 307.736 6.393 307.736c-157.07 0-239.633-85.732-239.633-249.169 0-162.682 74.523-250.814 238.838-250.814 75.29 0 149.018 19.207 189.132 47.263V90.588H0Z" style="fill:#6b6b6b;fill-opacity:1;fill-rule:nonzero;stroke:none" transform="translate(1698.262 513.168)"/><path d="M0 0h-89.575v133.919h-86.336v-503.498h75.521c7.019 29.688 10.815 80.696 10.815 120.626v176.624H0Zm-522.31 124.732V54.045h102.575V19.879c0-90.101-18.33-146.765-111.701-187.81l35.064-62.583c53.426 19.941 103.628 57.748 126.809 105.766 23.196-45.338 71.787-82.587 118.705-100.901l42.082 73.368c-90.658 34.01-121.958 86.908-121.958 172.703v33.623h99.786v70.687zm-51.256-421.424h-265.532c-6.972 0-9.157 1.596-9.157 9.158v105.208h-90.132V-324.21c0-30.788 15.618-45.369 46.438-45.369h318.383zm-9.157 430.611h-90.133V31.376h-84.74v-73.925h84.74v-187.299h79.349c6.446 25.411 10.784 68.037 10.784 98.778zm-447.377-9.745V52.96h98.189V34.645c0-73.413-29.688-112.273-109.547-137.623l30.231-67.991c55.052 12.923 109.004 45.323 131.13 89.56 23.723-44.237 75.599-74.995 123.586-86.321l38.287 77.675c-69.602 15.092-119.773 52.914-119.773 125.227V52.96h96.562v71.214z" style="fill:#6b6b6b;fill-opacity:1;fill-rule:nonzero;stroke:none" transform="translate(3023.357 682.548)"/><path d="M0 0c207.474 0 375.591 168.279 375.591 375.645 0 207.462-168.117 375.536-375.591 375.536-207.419 0-375.591-168.074-375.591-375.536C-375.591 168.279-207.419 0 0 0" style="fill:#a50034;fill-opacity:1;fill-rule:nonzero;stroke:none" transform="translate(563.386 187.795)"/><path d="M0 0v-329.261h104.636v29.319H29.88V0Z" style="fill:#fff;fill-opacity:1;fill-rule:nonzero;stroke:none" transform="translate(548.476 728.283)"/><path d="M0 0c24.914 0 45.095 20.181 45.095 44.972C45.095 69.885 24.914 90.08 0 90.08c-24.722 0-44.957-20.195-44.957-45.108C-44.957 20.181-24.722 0 0 0" style="fill:#fff;fill-opacity:1;fill-rule:nonzero;stroke:none" transform="translate(443.491 638.398)"/><path d="M0 0c-3.842.165-11.332.275-14.94.275-173.274 0-314.307-141.075-314.307-314.445 0-83.988 32.61-162.86 91.891-222.223 59.583-59.404 138.578-92.07 222.416-92.07 83.852 0 162.86 32.666 222.429 92.07 59.226 59.363 91.85 138.235 91.85 222.223v14.351l-12.525-.097H74.989v-29.18h194.525v-4.226C259.526-481.585 135.765-599.117-14.94-599.117c-76.087 0-147.632 29.62-201.466 83.426-53.862 53.82-83.51 125.421-83.51 201.521 0 76.142 29.648 147.728 83.51 201.508 53.834 53.93 125.379 83.536 201.466 83.536 3.443 0 11.524-.068 14.94-.15z" style="fill:#fff;fill-opacity:1;fill-rule:nonzero;stroke:none" transform="translate(578.353 877.686)"/></g></svg>