<svg xmlns="http://www.w3.org/2000/svg" xml:space="preserve" width="782.64117" height="200" viewBox="0 0 782.64117 200"><path d="M131.268 437.933c9.569 0 15.306-2.63 18.575-6.12 2.885-3.095 2.65-9.281 2.65-17.241v-36.91h27.584v35.792c0 4.347-.09 7.875-.264 10.602a86.535 86.535 0 0 1-.803 7.541c-1.2 6.873-3.648 12.302-7.361 16.266-6.348 6.752-17.231 10.135-32.663 10.135-4.066 0-7.602-.227-10.585-.65-2.997-.445-5.598-1.065-7.804-1.866-6.29-2.258-10.594-6.56-12.93-12.92-.42-.86-.69-1.494-.807-1.86a68.185 68.185 0 0 1-.718-2.53v18.378H78.553v-78.888h27.589v34.5c0 7.63 1.831 13.384 5.503 17.246 3.184 3.16 9.347 8.525 19.623 8.525M546.8 411.03l.084 6.455-.436 9.634c0 1.922-.117 3.5-.294 4.774-.17 1.28-.516 2.919-.997 4.953-2.357 10.268-9.192 16.592-20.488 19.007-5.642 1.309-15.42 1.952-29.327 1.952-9.418 0-17.258-.524-23.497-1.566-6.261-1.034-11.177-2.573-14.756-4.595-5.35-3.138-8.842-8.449-10.47-15.943-1.218-5.27-1.834-11.779-1.834-19.53 0-2.89.155-5.634.468-8.237a78.438 78.438 0 0 1 1.277-7.683c2.79-12.599 11.35-19.915 25.674-21.927 6.567-.922 14.187-1.376 22.861-1.376 8.137 0 15.156.265 21.039.818 5.887.558 10.469 1.321 13.768 2.308 5.09 1.472 9.204 4.275 12.326 8.39 3.13 4.135 4.686 9.024 4.686 14.69v1.47h-28.32c-.553-2.838-1.645-5.029-3.295-6.55-1.645-1.517-3.834-2.277-6.573-2.277a318.8 318.8 0 0 0-7.325-.271 206.67 206.67 0 0 0-6.49-.088c-6.14 0-10.951.453-14.422 1.372-5.054 1.53-7.584 5.189-7.584 11.005v3.215zm-74.494 17.482c0 3.287 1.14 5.844 3.45 7.69 2.31 1.839 5.47 2.772 9.472 2.772 2.862.217 6.356.336 10.476.336l10.938-.336c3.384 0 6.06-.698 8.013-2.106 1.939-1.4 3.155-3.356 3.633-5.841l.368-2.515h-46.35M635.354 397.836c-1.196-.967-2.944-1.448-5.218-1.448-3.503-.492-7.814-.724-12.939-.724h-8.865l-6.932.724c-5.856.536-8.477 3.86-9.397 8.665h-28.262v-6.822c0-5.495 1.936-9.93 5.81-13.294 3.87-3.366 9.109-5.584 15.756-6.62 6.623-1.047 16.547-1.567 32.032-1.567h16.12c5.224 0 9.836.48 13.828 1.435 3.993.954 7.25 2.241 9.764 3.848 5.658 3.65 8.483 10.938 8.483 21.89 0 11.265-4.42 18.272-13.236 21.063a59.065 59.065 0 0 1-7.546 1.987c-2.421.465-4.974.695-7.635.695-.365 0-1.946.062-4.72.187-2.775.123-5.115.18-7.028.18l-18.045.719-8.796.164c-2.16 0-3.77.425-4.859 1.292-1.077.846-1.615 2.116-1.615 3.756 0 2.59 1.697 4.068 5.074 4.44 3.391.354 6.528.543 9.429.543h16.453c4.36-.434 7.393-1.863 9.044-4.296l1.306-2.256h28.647v4.809c0 3.822-.903 7.045-2.68 9.652-1.783 2.608-4.322 4.688-7.652 6.223-2.092 1.047-4.79 2.21-7.714 2.955-2.864.722-7.004 1.803-12.419 1.803h-9.146c-7.75 0-12.66.03-14.678.03-4.407 0-8.887-.133-13.408-.41-4.508-.286-8.154-.598-10.92-.978-13.134-1.843-19.72-9.974-19.72-24.368 0-9.434 3.65-15.682 10.92-18.76 2.03-.918 5.016-1.68 8.927-2.264 3.916-.586 8.594-.887 14.026-.887l17.682-.718 10.37-.54c3.706-.364 6.237-.774 7.59-1.188 2.643-.899 3.978-2.887 3.978-5.919 0-1.685-.608-3.023-1.809-4M299.023 411.22l.088 6.456-.44 9.632c0 1.92-.109 3.503-.29 4.777-.163 1.278-.516 2.92-1.003 4.956-2.352 10.268-9.188 16.594-20.483 19.006-5.644 1.31-15.422 1.952-29.328 1.952-9.42 0-17.256-.526-23.497-1.568-6.258-1.034-11.177-2.573-14.76-4.592-5.347-3.141-8.835-8.453-10.471-15.945-1.216-5.274-1.822-11.78-1.822-19.528 0-2.897.153-5.638.463-8.243.305-2.61.724-5.169 1.274-7.68 2.79-12.601 11.35-19.912 25.68-21.926 6.56-.923 14.178-1.379 22.858-1.379 8.137 0 15.152.266 21.037.823 5.887.556 10.47 1.319 13.77 2.31 5.087 1.467 9.205 4.27 12.325 8.392 3.131 4.129 4.687 9.018 4.687 14.684v1.47h-28.32c-.555-2.84-1.652-5.026-3.297-6.552-1.643-1.517-3.832-2.271-6.571-2.271a282.425 282.425 0 0 0-7.322-.274c-2.244-.073-4.405-.091-6.492-.091-6.144 0-10.956.457-14.423 1.374-5.056 1.53-7.584 5.187-7.584 11v3.216zm-74.494 17.484c0 3.286 1.145 5.841 3.451 7.69 2.312 1.84 5.47 2.773 9.476 2.773 2.855.218 6.352.333 10.481.333l10.928-.333c3.389 0 6.059-.694 8.017-2.107 1.94-1.4 3.151-3.355 3.634-5.84l.364-2.516h-46.35" style="fill:#f59f0f;fill-opacity:1;fill-rule:nonzero;stroke:none;stroke-width:1.49008" transform="matrix(1.33333 0 0 -1.33333 -104.738 645.784)"/><path d="M413.807 468.6a10.232 10.232 0 0 1-7.261 3.012c-2.75 0-5.324-1.077-7.264-3.011 0 0-8.49-8.49-8.461-8.463a10.194 10.194 0 0 1-3.038-7.298c0-2.748 1.074-5.35 3.038-7.288 1.897-1.906 4.488-2.971 7.215-2.98 2.753 0 5.348 1.065 7.276 3.004l8.495 8.493c4 4.007 4 10.53 0 14.532" style="fill:#2a3f91;fill-opacity:1;fill-rule:nonzero;stroke:none;stroke-width:1.49008" transform="matrix(1.33333 0 0 -1.33333 -104.738 645.784)"/><path d="M413.485 402.474c-.034.03-8.529 8.511-8.529 8.511a10.202 10.202 0 0 1-7.276 3.022 10.117 10.117 0 0 1-7.263-3.044c-3.97-3.967-3.984-10.474 0-14.48l8.507-8.508c4-3.997 10.5-3.997 14.527-.007 3.986 4.024 3.986 10.516.034 14.506" style="fill:#f59f0f;fill-opacity:1;fill-rule:nonzero;stroke:none;stroke-width:1.49008" transform="matrix(1.33333 0 0 -1.33333 -104.738 645.784)"/><path d="M355.98 460.13s-8.485 8.482-8.505 8.504c-4.008 3.975-10.51 3.975-14.515-.022-3.997-4.001-3.997-10.519-.016-14.515l8.52-8.506c1.912-1.93 4.506-3 7.255-3 2.751 0 5.333 1.078 7.277 3.021a10.188 10.188 0 0 1 2.987 7.245c0 2.739-1.068 5.33-3.004 7.273" style="fill:#43b23b;fill-opacity:1;fill-rule:nonzero;stroke:none;stroke-width:1.49008" transform="matrix(1.33333 0 0 -1.33333 -104.738 645.784)"/><path d="M348.262 429.668a10.34 10.34 0 0 1-1.017 3.163h-30.269a10.137 10.137 0 0 1-1.013-3.163h32.299M316.004 426.333a10.26 10.26 0 0 1 .973-2.867h30.268c.457.892.791 1.846.968 2.867h-32.21M344.515 436.172a10.203 10.203 0 0 1-6.403 2.256h-12a10.22 10.22 0 0 1-6.404-2.256h24.807M319.716 420.128a10.216 10.216 0 0 1 6.395-2.244h12c2.423 0 4.638.84 6.404 2.244h-24.8M398.63 426.353a10.05 10.05 0 0 1 .968-2.867h30.268a9.87 9.87 0 0 1 .969 2.867H398.63M430.883 429.688a10.072 10.072 0 0 1-1.018 3.167h-30.268a10.263 10.263 0 0 1-1.014-3.167h32.3M402.333 420.147a10.182 10.182 0 0 1 6.392-2.241h12c2.424 0 4.648.834 6.403 2.24h-24.795M427.135 436.196a10.247 10.247 0 0 1-6.41 2.253h-11.999c-2.415 0-4.64-.848-6.398-2.253h24.807" style="fill:#f59f0f;fill-opacity:1;fill-rule:nonzero;stroke:none;stroke-width:1.49008" transform="matrix(1.33333 0 0 -1.33333 -104.738 645.784)"/><path d="M371.567 484.32a10.152 10.152 0 0 1-2.858-.953V453.06c.889-.453 1.85-.78 2.858-.958v32.219M365.37 480.699a10.185 10.185 0 0 1-2.327-6.482v-12.003c0-2.461.876-4.714 2.326-6.482V480.7M378.073 483.296a10.32 10.32 0 0 1-3.083 1.042v-32.246c1.096.18 2.135.54 3.083 1.04v30.164M381.41 480.505V455.92a10.187 10.187 0 0 1 2.178 6.295v12.003a10.15 10.15 0 0 1-2.178 6.288" style="fill:#d4202a;fill-opacity:1;fill-rule:nonzero;stroke:none;stroke-width:1.49008" transform="matrix(1.33333 0 0 -1.33333 -104.738 645.784)"/><path d="M371.555 404.779a9.924 9.924 0 0 1-2.856-.952v-30.308c.89-.447 1.847-.77 2.856-.944v32.204M365.358 401.154a10.179 10.179 0 0 1-2.325-6.486v-11.992c0-2.466.873-4.715 2.325-6.482v24.96M378.254 403.757c-.948.498-1.986.859-3.086 1.036v-32.24c1.1.181 2.138.542 3.086 1.033v30.171M381.585 400.966v-24.592a10.17 10.17 0 0 1 2.178 6.302v11.992a10.16 10.16 0 0 1-2.178 6.298M340.434 402.762h-17.719c-2.502 0-4.862.568-6.957 1.57v-69.994h32.482v70.442a16.093 16.093 0 0 0-7.806-2.018" style="fill:#f59f0f;fill-opacity:1;fill-rule:nonzero;stroke:none;stroke-width:1.49008" transform="matrix(1.33333 0 0 -1.33333 -104.738 645.784)"/></svg>