<svg xmlns="http://www.w3.org/2000/svg" width="500.00299mm" height="400mm" viewBox="0 0 500.00299 400"><path d="m-67.817 221.938.003-174.988c0-20.708 22.387-37.526 49.997-37.526s50 16.793 50 37.5v175.014c0 20.708-22.39 37.487-50 37.487s-50-16.779-50-37.487" style="fill:#c61f32;fill-opacity:1;fill-rule:evenodd;stroke:none;stroke-width:2.20488" transform="translate(205.318 -9.424)"/><path d="m57.183 221.938.001-47.184 42.843 51.058 6.708-5.629-48.625-57.949 60.015 46.052 5.33-6.947-60.014-46.051 68.56 31.97 3.7-7.936-68.56-31.97 73.854 16.373 1.895-8.55-73.854-16.372h75.647v-8.756H69.036l73.854-16.374-1.895-8.55-73.854 16.374 68.56-31.97-3.7-7.936-68.56 31.97 60.015-46.05-5.33-6.948-60.015 46.05 48.625-57.948-6.709-5.629-42.841 51.058V46.95c0-20.708 22.388-37.526 49.998-37.526 27.61 0 50 16.793 50 37.5v175.014c0 20.708-22.39 37.487-50 37.487s-50-16.779-50-37.487" style="fill:#2270c1;fill-opacity:1;fill-rule:evenodd;stroke:none;stroke-width:2.20488" transform="translate(205.318 -9.424)"/><path d="M-158.937 358.434v-41.78c0-5.126-3.756-2.856-5.559-4.84-1.847-2.03 2.7-2.58 4.078-2.336 3.526.145 9.26 1.221 10.273 1.41 0 1.657-.965 4.182-.965 5.894v10.703c1.065-.187 2.364-.75 2.89-1.348 2.667 0 10.22.278 9.8 3.727-.318 2.615-5.881 1.838-8.958 1.838h-3.732v26.732zm432.532 0V316.81c0-5.126-3.758-2.857-5.559-4.838-1.847-2.033 2.832-2.388 4.078-2.337 3.542.144 9.266 1.224 10.273 1.409 0 1.658-.924 4.233-.929 5.944v13.865c1.065-.187 2.193-.848 2.942-1.499 1.804 0 4.722-.258 8.043 1.005.794.3 1.354.634 1.716.976.361.342.525.695.526 1.036.002 1.085-1.633 2.063-3.75 2.278-3.986.405-5.444.226-9.477.226v23.56zM30.378 347.927v-31.118c0-5.126-3.758-2.857-5.56-4.838-.865-.953-.188-1.658.995-2.017.858-.26 2.007-.364 3.083-.32 3.542.144 9.267 1.224 10.274 1.409 0 1.658-.966 4.183-.966 5.894v13.765c1.065-.187 2.14-.7 2.89-1.347 2.669 0 10.219.277 9.8 3.726-.316 2.615-5.883 1.837-8.957 1.837h-3.733v13.009zm61.878-2.4V316.81c0-5.125-3.756-2.856-5.557-4.838-.866-.953-.19-1.658.993-2.017.369-.111.793-.194 1.24-.25a11.44 11.44 0 0 1 1.844-.07c3.526.143 9.26 1.22 10.273 1.409 0 1.657-.965 4.183-.965 5.893v13.765c1.096-.195 2.1-.665 2.89-1.348 2.612 0 5.744.115 8.078 1.271 1.136.563 1.856 1.36 1.722 2.456-.318 2.614-5.882 1.837-8.958 1.837h-3.732v10.61h-7.828zm-170.648-7.204c-1.635.596-7.79.245-9.226.159-5.82-.35-12.216-.344-18.468-.347v10.589l10.258.022c1.318.002 2.63-.264 3.946-.332l-.008 21.45h-8.292v-16.801c-4.882-.157-17.315-.577-21.893.053-.874.12-1.854.736-2.652.736-2.584 0-12.76-3.72-7.078-5.357l15.355.34 2.311.028v-10.72l-13.004.225c-.892.03-2.339.653-2.914 1.157-2.722 0-6.6-1.086-9.148-2.612-1.919-1.147-2.817-2.57.056-3.328 1.232-.324 10.201.523 12.796.57 12.127.22 23.426.283 35.617.022 1.076-.024 2.687-.905 3.341-1.477 1.62 0 9.275.371 10.312 2.5.558 1.145.078 2.617-1.314 3.124zm51.74-4.445c1.188-.148 2.578-.549 3.072-1.328 2.668 0 9.905.238 9.485 3.687-.318 2.615-5.883 1.838-8.959 1.838h-3.599v31.789h-7.865v-53.055c0-5.126-3.757-2.856-5.559-4.838-.865-.953-.188-1.658.994-2.017.858-.26 2.008-.364 3.084-.32 3.542.144 9.267 1.224 10.274 1.409 0 1.658-.932 4.266-.928 5.978zM30.4 369.825v-14.488c-4.4-.136-13.692-.46-18.324-.048-.978.087-2.61.218-3.369.875-1.141 0-2.2-.25-3.276-.572-3.7-1.106-8.503-3.543-4.198-4.784 1.305-.376 8.302.291 10.95.306l26.03-.301v19.013zm134.274-52.888v52.927h-7.828v-53.055c0-5.125-3.759-2.858-5.559-4.838-.876-.966-.166-1.663.993-2.017 2.895-.88 8.464.24 11.913.844.498.086.938.15 1.445.15 0 2.033-.964 3.97-.964 5.99zm54.973 17.99h-5.978l.012 29.452h-7.692v-45.645c0-5.278-3.562-2.827-5.232-4.847-1.62-1.96 2.42-2.39 3.864-2.329 2.012.087 5.587.823 7.764 1.189.749.126 1.464.234 2.235.262 0 1.706-.952 4.096-.952 5.853v12.05l5.981.002.031-13.95c.002-1.283-.213-2.226-.424-2.59-.944-1.632-5.819-1.51-5.058-3.482.954-2.47 8.042-.89 11.634-.211.845.16 1.6.266 2.456.266 0 1.706-.964 4.233-.964 5.99v52.927h-7.68v-34.937zm-269.64 12.87c-2.335-.383-2.58-1.992-2.38-3.917.176-1.696.57-4.08.888-6.505.496-3.78 1.195-9.203 1.687-15.634.135-1.768-.315-1.547-2.589-1.601-1.011-.024-7.864-.302-11.965.216-1.066.135-2.241.283-3.035.967-1.678 0-3.276-.552-4.761-1.184-3.463-1.475-6.655-3.908-2.53-4.799.96-.154 1.86.075 2.88.144l7.762.532 14.844-.253c.732-.247 1.429-.644 2.231-.685.703-.034 1.592.173 3.187.821 2.463 1.002 3.204 3.018 2.613 5.24-.332 1.246-.703 3.444-1.142 6.05-.94 5.589-1.916 13.164-3.719 17.396-.73 1.715-1.86 3.56-3.972 3.212zm-17.865 4.476 2.32-.05V337.12c0-2.743-1.731-2.67-2.98-2.879-1.237-.205-2.151-.359-1.762-1.62.709-2.298 6.503-1.448 10.15-.88 1.135.177 2.205.348 3.355.348l-.86 4.5v15.175c6.229-.513 13.03-.804 19.04-1.783 3.29-.536 3.488 2.812.815 3.398-8.12 1.78-16.038 2.275-24.262 2.788-1.896.119-3.81.238-5.698.371-.722.145-2.424.977-3.088.977-1.652 0-13.085-3.685-7.47-5.605 1.618-.553 8.477.364 10.44.364zm-21.762-33.29c-.834 3.228-3.648 11.546-6.827 13.698-.68.46-2.355.714-3.252.389-1.505-.545-2.21-2.078-1.838-3.252.68-2.153 2.14-7.397 2.669-10.69.224-1.397-.474-1.312-1.778-1.405-6.7-.48-13.296-.288-19.963.348-.78.163-2.353.92-3.03.92-2.52 0-13.135-4.633-6.894-6.205.728-.183 5.89.251 5.889.251 8.696.938 17.759.038 26.532.027.59-.092 2.88-.835 3.755-.99 2.942-.522 5.832 1.702 5.832 4.653-.036.638-1.075.972-1.095 2.255zm-89.77.394c2.8-.026 5.414.283 7.412-1.464 2.397 0 10.277.412 9.62 3.832-.565 2.933-8.071 1.789-11.863 1.668-.665-.022-17.247-.57-19.267.102-2.207.734-1.635 1.14-4.98.552-1.046-.184-6.851-2.232-6.851-3.883 0-.484.48-.934 1.724-1.292 1.424-.41 6.396.34 8.53.402l7.703.148c.069-2.021.658-5.14-1.94-5.681-3.373-.702-1.894-3.385 1.217-3.29 3.248.1 6.382.897 9.584 1.026l-.153 1.28c-.244 1.398-.703 4.03-.736 6.6zm-7.736 34.504c.362-1.002 2.806-1.416 4.506-1.28l10.28.911c0 2.543-1.569 1.388-.523 10.674.13 1.155.737 1.312 3.805 1.347 2.83.032 8.76.384 11.383-.193.83-.183 1.35-.617 2.027-1.1 2.742 0 6.342.377 8.95 1.3 2.309.997 1.737 4.03-1.005 4.257-9.623.452-19.096.65-28.57.036-4.785-.311-5.34-2.173-5.143-4.458l.108-6.211c-.258-2.149-.345-2.884-3.94-3.496-.728-.124-2.243-.776-1.878-1.787zm19.313-18.366c0 13.269-22.775 16.382-29.702 5.02-5.835-9.572 6.532-19.83 19.693-16 5.621 1.638 10.01 5.653 10.01 10.98zm-8.495 0c0-9.87-14.07-9.777-14.07 0 0 10.178 14.07 10.307 14.07 0zm367.103 4.958c-3.795 5.876-10.426 12.379-16.817 16.13-3.384 1.987-7.188-.716-3.576-2.96 5.728-3.561 11.031-10.701 14.621-16.949 1.39-2.419 6.963-11.89 5.696-14.173-.659-1.188-8.03-.456-8.545-.388-2.669.351-1.806 3.274-8.297-1.792-2.677-2.09-1.88-4.68 2.588-4.124 6.913.86 10.731.946 16.123.483.566-.05 1.696-1.04 2.693-.989 1.59.083 3.304.931 4.349 2.12.797.907 1.49 2.142 1.388 3.556-.122 1.706-1.207 3.676-2.092 5.649-1.52 3.383-3.58 6.533-5.63 9.689 3.6 3.283 9.372 7.798 10.859 11.218.56 1.291 1.478 6.572-.083 8.074-1.38 1.327-4.352 1.115-5.05-.687-2.167-5.594-4.679-9.852-8.227-14.857zm-47.76 13.61c-6.632.94-13.258 1.44-20.23 1.961-.707.154-2.35 1.033-3.02 1.033-1.443 0-13.1-4-7.396-5.915 1.57-.527 5.821.275 7.964.35 9.932.346 23.082-1.521 32.832-3.034 3.014-.468 3.555 2.722 1.464 3.346-3.25.968-8.292 1.788-11.614 2.259zm-14.298-37.696c-.804-3.004-.085-5.68 4.164-5.535 3.975.135 4.837 2.53 4.34 5.531 18.983 3.773 15.226 27.026-4.318 27.026-19.268 0-22.986-23.263-4.186-27.022zm12.596 13.04c0-12.302-16.52-11.75-16.52 0 0 12.191 16.52 12.218 16.52 0zm-70.77 4.766c-4.929 5.044-12.253 8.969-19.18 11.51-3.718 1.363-7.268-.791-3.352-2.708 7.554-3.697 13.616-8.382 18.768-14.412 5.517-6.457 6.404-6.963-.46-6.748-7.902.248-5.445.97-7.606 1.271-1.508.21-6.338-1.466-8.09-3.118-.982-.927-.997-1.845 1.088-2.42.996-.273 4.822.048 7.647.245 1.231.085 2.409.128 3.637.128.044-1.63.366-3.641-1.789-4.088-2.06-.428-3.434-2.98.917-3.265 2.638-.172 5.325.399 7.87.926l1.811.376-.803 5.998c.982.023 4.663-.136 5.45-.818.996.377 1.885.614 2.958 1.082 2.011.875 2.667 2.284.89 5.334-1.852 3.175-3.982 5.41-6.764 8.148 4.579 2.01 14.404 6.08 14.404 8.9 0 4.504-4.57 6.169-6.73 3.31-2.835-3.752-6.46-7.043-10.666-9.651zm30.04 25.424c0 3.999-2.006 7.076-5.03 9.154-3.024 2.078-7.067 3.158-11.14 3.16-6.026.004-12.12-2.346-15.091-7.3-3.734-6.226.032-12.811 6.695-15.797 10.402-4.66 24.566.656 24.566 10.783zm-8.273 0c0-10.8-16-10.67-16 0 0 10.717 16 10.774 16 0zM9.926 318.634c2.801-.027 5.403.276 7.414-1.463 2.318 0 10.228.587 9.616 3.767-.554 2.883-8.706 1.71-12.718 1.575-4.588-.154-16.899-.568-19.334.404-1.73.69-2.233.64-4.12.201-8.412-1.954-8.184-5.857-2.69-5.1 4.766.659 9.01.69 13.86.693.056-1.873.497-4.546-1.939-5.052-3.375-.7-1.894-3.383 1.216-3.288 2.493.076 5.88.545 7.758.827.621.094 1.2.175 1.825.198 0 1.68-.832 4.636-.888 7.238zm11.354 15.948c0 13.285-22.742 15.905-29.294 4.968-5.674-9.474 6.23-19.489 19.457-15.801 5.55 1.547 9.837 5.636 9.837 10.833zm-8.495 0c0-9.802-13.625-9.674-13.625 0 0 10.01 13.625 10.138 13.625 0zM239 344.922c-2.235-.777-3.217-1.597-3.21-4.781l.03-16.174c-.19-3.055.164-4.243-1.757-4.759-3.117-.836-2.832-3.947.47-3.947 4.537 0 13.792 1.328 18.877.318 1.112-.22 2.156-.58 3.012-1.359 3.178.123 10.427.227 10.006 3.916-.358 3.138-6.187 2.107-8.725 2.025l-13.575.098v14.45c0 4.119 0 5.14 4.286 5.044 4.803-.11 12.962-1.624 14.278-1.884 3.369-.666 5.758-1.499 7.395-1.49 2.53.013 3.028 2.196.693 3.326-3.867 1.466-13.225 4.087-19.61 4.945-4.497.605-9.19 1.31-12.167.273zm46.795 20.773c2.373.999 1.784 4.032-1.035 4.258-3.995.32-26.305.19-28.715.034-4.859-.313-5.294-2.228-5.294-5.912v-6.847c0-.977-.205-1.827-.483-2.103-.317-.315-.933-.532-1.639-.725-1.805-.492-3.735-.752-3.71-2.277.007-.521.262-1.278 2.18-1.28 2.043-.002 5.465.12 7.566.342l5.386.567c.1 2.008-.536 1.936-.536 4.523v8.067c0 1.308.767 1.31 3.747 1.347 2.48.032 7.204.15 10.111-.002 1.51-.08 2.14-.57 3.228-1.356 2.836 0 6.514.443 9.194 1.365" style="fill:#231f20;fill-opacity:1;fill-rule:nonzero;stroke:none;stroke-width:2.20488" transform="translate(205.318 -9.424)"/><path d="M-27.38 401.354c0 1.6.733 1.456 2.106 1.456v1.794c-1.834 0-3.89.308-3.89-2.262v-10.77h-1.806v-1.69h1.805v-3.9h1.784v3.9h2.107v1.69h-2.107zm185.941-5.752c0-6.093-3.19-4.634-3.855-3.368-.378.72-.568 1.843-.568 3.368zm1.806 3.952c-.056 6.528-5.558 6.344-7.109 3.51-1.345-2.458-1.26-9.297 0-11.7.663-1.265 1.714-1.898 3.15-1.898 3.217 0 4.006 3.095 4.006 7.306 0 .173-.008.338-.024.494h-6.253c0 2.306-.092 5.902 2.363 5.902 1.725 0 2.083-2.031 2.083-3.614zm1.256-9.672h1.713v1.82c1.108-2.55 4.532-2.73 5.708-1.158.486.65.73 1.774.73 3.368v10.582h-1.83v-10.738c0-2.91-2.66-2.877-3.786-1.508-.47.571-.706 1.353-.706 2.34v9.906h-1.83zm17.766 9.464c0 6.513-5.642 6.777-7.364 3.64-1.445-2.633-2.37-13.494 3.334-13.494 2.857 0 3.936 2.272 3.936 4.966h-1.783c-.148-4.034-3.197-3.754-3.994-1.82-.774 1.878-1.096 8.811.787 10.101.89.61 2.173.353 2.733-.624.362-.632.551-1.556.568-2.77zm7.298-3.744c0-6.093-3.19-4.634-3.855-3.368-.378.72-.567 1.843-.567 3.368zm1.807 3.952c-.063 6.529-5.56 6.344-7.11 3.51-1.344-2.458-1.26-9.297 0-11.7.664-1.265 1.715-1.899 3.15-1.899 3.217 0 4.006 3.097 4.006 7.307 0 .173-.008.338-.024.494h-6.252c0 2.306-.094 5.902 2.362 5.902 1.725 0 2.084-2.031 2.084-3.614zm10.47-7.41c2.39-1.79 2.57-5.46.278-5.46-1.834 0-1.774 2.25-1.25 3.601.23.597.555 1.217.972 1.859zm-.625 2.6c-5.85 4.297.345 11.702 3.82 6.24zm4.77 7.852c-3.11 4.19-9.101 2.366-9.101-3.484 0-2.706 1.201-4.273 3.474-5.824-1.442-2.142-2.525-5.147-.706-7.294 2.04-2.408 5.916-.789 5.916 2.665 0 1.942-.965 3.572-2.895 4.888l3.335 5.46c.323-1.09.48-2.33.555-3.613h1.853c-.124 2.27-.564 4.04-1.32 5.304l2.34 3.796h-2.247zm18.904-5.278c-.05 3.935-1.133 7.644-5.233 7.644-4.723 0-5.28-5.56-5.28-10.192 0-4.09.251-10.297 5.419-10.297 3.662 0 4.979 2.707 4.979 6.215h-1.876c0-4.828-4.348-5.654-5.685-2.354-1.184 2.924-1.012 10.335.012 12.702 1.123 2.595 5.743 3.49 5.743-3.718h1.922zm1.557-7.436h1.69v2.392c.55-1.854 1.94-3.025 3.798-2.678v2.183c-.98-.7-3.682.068-3.682 3.77v8.945h-1.806zm11.467 5.72c0-6.094-3.19-4.634-3.856-3.368-.378.72-.566 1.843-.566 3.368zm1.806 3.952c-.056 6.528-5.56 6.344-7.108 3.51-1.345-2.458-1.26-9.297 0-11.7.663-1.265 1.713-1.898 3.149-1.898 3.217 0 4.006 3.096 4.006 7.306 0 .173-.006.338-.025.494h-6.252c0 2.306-.094 5.902 2.362 5.902 1.724 0 2.084-2.031 2.084-3.614zm6.836-2.938c-1.609 1.807-4.121.64-4.121 4.16 0 3.613 4.121 2.9 4.121-1.274zm2.872 7.904c-1.612.242-2.661.088-2.756-1.976-1.297 3.48-6.067 3.293-6.067-1.742 0-3.118 1.054-3.477 3.914-4.81 2.217-1.034 1.991-1.324 1.991-3.094 0-1.144-.641-1.716-1.922-1.716-1.444 0-1.922 1.001-1.922 2.574h-1.713c.056-2.807 1.022-4.29 3.844-4.29 2.617 0 3.565 1.341 3.565 3.926v8.554c0 1.083.405 1.014 1.066 1.014zm6.09-19.578h1.875v2.652h-1.876zm0 4.94h1.875v14.612h-1.876zm2.412 0h1.992l2.547 11.466 2.663-11.466h1.899l-3.613 14.612h-1.968zm9.662-4.94h1.875v2.652h-1.875zm0 4.94h1.875v14.612h-1.875zm-15.04 11.424c0 1.6.737 1.456 2.108 1.456v1.795c-1.833 0-3.89.308-3.89-2.263v-10.722h-1.806v-1.69h1.806v-3.9h1.783v3.9h2.107v1.69h-2.107zm23.502 6.022c1.402.684 2.357.093 2.883-1.274.147-.38.297-.858.452-1.43l-3.383-13.052h-2.325c0 1.636-.143 9.496.056 10.489.182.897 1.311.701 2.05.701v1.795c-1.834 0-3.89.308-3.89-2.263v-10.722h-1.806v-1.69h1.805v-3.9h1.783v3.9h3.855l2.78 11.778 2.87-11.778h1.876l-4.006 15.262c-.313 1.216-.657 2.286-1.196 3.053-.54.766-1.276 1.228-2.376 1.227-.239 0-.495-.024-.77-.068a3.704 3.704 0 0 1-.66-.182zm-297.613-22.386h1.829v6.526c1.578-3.01 6.322-2.522 6.322 1.404v11.622h-1.83V393.86c0-3.427-2.841-2.696-3.763-1.61-.485.57-.729 1.352-.729 2.338v9.907h-1.829zm15.612 10.66c0-6.093-3.19-4.634-3.856-3.368-.377.72-.566 1.843-.566 3.368zm1.806 3.952c-.057 6.528-5.558 6.344-7.109 3.51-1.345-2.458-1.26-9.297 0-11.7.664-1.265 1.714-1.898 3.15-1.898 3.217 0 4.005 3.096 4.005 7.306 0 .173-.008.338-.024.494h-6.252c0 2.306-.094 5.902 2.361 5.902 1.725 0 2.084-2.031 2.084-3.614zm12.969-2.678-2.316-10.244-2.316 10.244Zm-3.567-11.934h2.478l4.816 19.552H7.71l-1.32-5.642H.88l-1.273 5.642h-1.968Zm13.896 12.142c0-2.593-.02-5.72-2.454-5.72-3.397 0-2.662 8.367-1.923 10.18.763 1.867 2.998 1.87 3.787.064.393-.901.59-2.41.59-4.524zm0 7.41v-1.846c-.745 2.814-4.497 2.85-5.905.091-1.454-2.85-2.183-13.195 2.987-13.195 1.224 0 2.493.651 2.802 1.845v-6.447h1.83v19.553zm2.228-14.612H20.5l2.547 11.466 2.664-11.466h1.898l-3.612 14.612h-1.968Zm14.838 6.734c-1.61 1.807-4.121.64-4.121 4.16 0 3.613 4.12 2.9 4.12-1.274zm2.871 7.904c-1.611.242-2.661.088-2.755-1.976-1.299 3.48-6.067 3.292-6.067-1.742 0-3.118 1.053-3.476 3.913-4.81 2.218-1.034 1.992-1.324 1.992-3.094 0-1.144-.641-1.716-1.922-1.716-1.445 0-1.922 1.001-1.922 2.574h-1.714c.056-2.807 1.023-4.29 3.844-4.29 2.617 0 3.566 1.34 3.566 3.926v8.554c0 1.083.405 1.014 1.065 1.014zm.677-14.638h1.713v1.82c1.114-2.564 4.54-2.718 5.708-1.158.486.65.73 1.774.73 3.368v10.582h-1.83v-10.738c0-2.91-2.66-2.876-3.785-1.508-.471.571-.707 1.353-.707 2.34v9.906h-1.829zm17.765 9.464c0 6.512-5.641 6.778-7.363 3.64-1.444-2.632-2.37-13.494 3.334-13.494 2.857 0 3.936 2.272 3.936 4.966h-1.783c-.148-4.032-3.196-3.755-3.994-1.82-.774 1.878-1.097 8.811.787 10.101.89.61 2.172.354 2.732-.624.364-.632.553-1.556.569-2.77zm7.3-3.744c0-6.094-3.19-4.634-3.856-3.368-.378.72-.567 1.843-.567 3.368zm1.806 3.952c-.063 6.53-5.56 6.343-7.11 3.51-1.344-2.458-1.259-9.298 0-11.7.664-1.265 1.715-1.898 3.15-1.898 3.217 0 4.006 3.096 4.006 7.306 0 .173-.008.338-.024.494h-6.252c0 2.307-.094 5.902 2.362 5.902 1.724 0 2.083-2.031 2.083-3.614zm1.255-9.672h1.69v1.768c1.334-2.58 5.373-3.129 6.23.024 1.735-3.262 6.645-2.943 6.645 1.456v11.363H77.71c0-2.179.163-9.913-.093-11.571-.424-2.741-4.377-1.795-4.377 1.404v10.167h-1.875v-10.167c0-4.436-3.165-2.848-3.81-2.158-.501.537-.752 1.223-.752 2.054v10.27H65.02zm22.003 5.72c0-6.094-3.19-4.634-3.856-3.368-.377.72-.567 1.843-.567 3.368zm1.806 3.952c-.056 6.51-5.55 6.36-7.109 3.51-1.345-2.458-1.26-9.297 0-11.7.664-1.265 1.714-1.898 3.15-1.898 3.217 0 4.005 3.096 4.005 7.306 0 .173-.008.338-.024.494H82.6c0 2.306-.093 5.902 2.363 5.902 1.724 0 2.083-2.031 2.083-3.614zm1.256-9.672h1.714v1.82c1.113-2.564 4.54-2.718 5.707-1.158.486.65.73 1.773.73 3.368v10.582h-1.83v-10.738c0-2.91-2.66-2.877-3.786-1.508-.47.571-.706 1.353-.706 2.34v9.906h-1.83zm12.195 11.596c0 1.599.735 1.456 2.107 1.456v1.794c-1.833 0-3.89.308-3.89-2.262v-10.894H98.69v-1.69h1.806v-3.9h1.783v3.9h2.107v1.69h-2.107zm6.229-4.29c0-3.802.663-7.723 4.561-7.723 3.982 0 4.585 3.831 4.585 7.723 0 3.898-.604 7.696-4.585 7.696-3.957 0-4.561-3.816-4.561-7.696zm1.945 0c0 2.064-.12 5.954 2.616 5.954 2.72 0 2.617-3.915 2.617-5.954 0-2.066.118-5.929-2.617-5.929s-2.616 3.863-2.616 5.93zm8.897-5.642h-1.83v-1.664h1.83c0-2.61-.293-5.045 3.08-5.045l.764.105v1.82c-2.42-.604-1.969 1.414-1.969 3.12h1.969v1.664h-1.969v12.949h-1.875zm10.592 6.733c0 2.745.555 4.733 3.241 4.733 3.23 0 3.746-4.14 2.594-5.772-1.905-2.696-7.434-1.178-7.434-7.333 0-6.101 5.911-6.534 8.094-4.107.911 1.013 1.169 2.543 1.169 4.186h-1.783c0-4.236-3.481-4.302-4.886-2.795-.946 1.015-1.027 3.35-.255 4.485 1.394 2.049 6.048 1.62 7.167 5.07 1.014 3.122.074 8.19-4.874 8.19-4.11 0-4.886-2.94-4.886-6.657zm17.65 1.067c0 6.511-5.642 6.778-7.364 3.64-1.445-2.633-2.37-13.494 3.334-13.494 2.857 0 3.937 2.272 3.937 4.966h-1.784c-.147-4.033-3.196-3.755-3.994-1.82-.774 1.879-1.097 8.811.788 10.101.889.61 2.171.354 2.732-.624.363-.632.552-1.556.568-2.77zm1.347-14.404h1.877v2.652h-1.877zm0 4.94h1.877v14.612h-1.877zm-341.76-4.948h1.922v9.413l6.299-9.413h2.246l-5.419 7.905 5.813 11.648h-2.362l-4.747-9.75-1.83 2.677v7.073h-1.921zm10.403 12.247c0-3.802.663-7.722 4.561-7.722 3.982 0 4.586 3.83 4.586 7.722 0 3.898-.604 7.696-4.586 7.696-3.958 0-4.56-3.816-4.56-7.696zm1.945 0c0 2.063-.12 5.954 2.616 5.954 2.72 0 2.617-3.915 2.617-5.954 0-2.066.118-5.928-2.617-5.928s-2.616 3.862-2.616 5.928zm8.41-7.307h1.69v2.393c.552-1.856 1.94-3.023 3.798-2.678v2.183c-.982-.7-3.682.07-3.682 3.77v8.945h-1.806zm11.467 5.72c0-6.092-3.189-4.633-3.854-3.366-.38.719-.568 1.841-.568 3.366zm1.807 3.953c-.057 6.527-5.559 6.344-7.11 3.51-1.344-2.459-1.26-9.297 0-11.7.665-1.266 1.714-1.898 3.15-1.898 3.217 0 4.006 3.095 4.006 7.306 0 .173-.008.338-.024.494h-6.252c0 2.307-.093 5.902 2.362 5.902 1.725 0 2.083-2.032 2.083-3.614zm6.836-2.938c-1.61 1.807-4.122.641-4.122 4.16 0 3.614 4.122 2.899 4.122-1.274zm2.87 7.904c-1.61.241-2.66.088-2.755-1.976-1.297 3.48-6.066 3.293-6.066-1.743 0-3.117 1.053-3.476 3.913-4.81 2.217-1.033 1.99-1.323 1.99-3.093 0-1.144-.64-1.717-1.92-1.717-1.445 0-1.923 1.002-1.923 2.575h-1.713c.056-2.806 1.022-4.29 3.844-4.29 2.618 0 3.565 1.34 3.565 3.925v8.555c0 1.084.405 1.014 1.066 1.014zm5.452-19.579h8.035v1.976h-6.043v6.293h4.773v2.028h-4.773v9.256h-1.992zm7.763 12.247c0-3.802.663-7.722 4.561-7.722 3.982 0 4.585 3.83 4.585 7.722 0 3.898-.603 7.696-4.585 7.696-3.958 0-4.561-3.816-4.561-7.696zm1.945 0c0 2.063-.119 5.954 2.616 5.954 2.72 0 2.617-3.916 2.617-5.954 0-2.065.118-5.928-2.617-5.928s-2.616 3.862-2.616 5.928zm14.731 5.408c-.916 2.543-4.257 3.01-5.615 1.391-.501-.598-.752-1.556-.752-2.873v-11.233h1.899v11.285c0 2.227 2.369 2.495 3.577.988.487-.606.73-1.464.73-2.575v-9.698h1.852v14.613h-1.69zm3.363-12.715h1.714v1.82c1.114-2.563 4.54-2.718 5.708-1.156.486.65.729 1.772.729 3.367v10.582h-1.83v-10.738c0-2.91-2.66-2.877-3.785-1.508-.47.572-.707 1.351-.707 2.34v9.906h-1.829zm16.261 7.203c0-2.593-.02-5.72-2.454-5.72-3.397 0-2.663 8.367-1.923 10.18.764 1.868 2.998 1.87 3.786.064.394-.902.591-2.41.591-4.524zm0 7.41v-1.846c-.745 2.813-4.497 2.85-5.905.09-1.454-2.85-2.183-13.194 2.987-13.194 1.224 0 2.493.651 2.802 1.846v-6.449h1.83v19.553zm8.828-7.878c-1.611 1.807-4.122.642-4.122 4.16 0 3.613 4.122 2.9 4.122-1.274zm2.87 7.904c-1.61.241-2.66.088-2.755-1.976-1.299 3.481-6.067 3.291-6.067-1.743 0-3.115 1.053-3.48 3.914-4.81 2.218-1.03 1.99-1.325 1.99-3.093 0-1.144-.64-1.717-1.92-1.717-1.446 0-1.923 1.002-1.923 2.575h-1.713c.056-2.806 1.022-4.29 3.843-4.29 2.618 0 3.566 1.34 3.566 3.925v8.555c0 1.084.405 1.014 1.066 1.014zm2.762-3.166c0 1.599.735 1.456 2.107 1.456v1.794c-1.834 0-3.891.308-3.891-2.262v-10.77h-1.806v-1.69h1.806v-3.9h1.784v3.9H-83v1.69h-2.107zm3.072-16.413h1.876v2.653h-1.876zm0 4.94h1.876v14.613h-1.876zm3.061 7.307c0-3.802.664-7.722 4.562-7.722 3.982 0 4.585 3.83 4.585 7.722 0 3.898-.603 7.696-4.585 7.696-3.957 0-4.562-3.816-4.562-7.696zm1.946 0c0 2.063-.118 5.954 2.616 5.954 2.72 0 2.617-3.915 2.617-5.954 0-2.066.118-5.928-2.617-5.928-2.734 0-2.616 3.862-2.616 5.928zm8.41-7.307h1.714v1.82c1.114-2.563 4.54-2.717 5.708-1.156.486.65.73 1.772.73 3.367v10.582h-1.83v-10.738c0-2.91-2.66-2.877-3.786-1.508-.47.571-.707 1.352-.707 2.34v9.906h-1.828zm14.648 1.665h-1.83v-1.665h1.83c0-2.61-.293-5.043 3.08-5.043l.764.103v1.82c-2.42-.604-1.969 1.415-1.969 3.12h1.969v1.665h-1.969v12.948h-1.875zm3.418 5.642c0-3.802.663-7.722 4.562-7.722 3.98 0 4.584 3.83 4.584 7.722 0 3.898-.603 7.696-4.584 7.696-3.959 0-4.562-3.816-4.562-7.696zm1.945 0c0 2.063-.118 5.954 2.617 5.954 2.72 0 2.617-3.915 2.617-5.954 0-2.066.117-5.928-2.617-5.928-2.735 0-2.617 3.862-2.617 5.928zm8.41-7.307h1.69v2.393c.551-1.854 1.94-3.025 3.798-2.678v2.183c-.98-.699-3.682.068-3.682 3.77v8.945h-1.806z" style="fill:#a7a5a6;fill-opacity:1;fill-rule:nonzero;stroke:none;stroke-width:2.20488" transform="translate(205.318 -9.424)"/></svg>