<svg xmlns="http://www.w3.org/2000/svg" width="90" height="15" fill="none" preserveAspectRatio="xMinYMin meet" viewBox="0 0 90 15"><path fill="#000" d="m18.442.187-5.23 14.567h3.063l.958-2.771h5.793l.959 2.77h3.084L21.84.188h-3.397Zm-.417 9.46 2.105-6.084 2.105 6.085h-4.21ZM37.738 10.19 31.132.187h-2.917v14.567h2.917V4.772l6.606 9.982h2.918V.187h-2.918V10.19ZM47.5 3.241c.66-.396 1.414-.594 2.261-.594.792 0 1.49.174 2.094.521.604.348 1.073.869 1.407 1.563h3.355c-.487-1.472-1.34-2.625-2.563-3.46-1.222-.833-2.647-1.25-4.271-1.25-1.39 0-2.644.317-3.761.95a6.91 6.91 0 0 0-2.646 2.646c-.647 1.132-.97 2.414-.97 3.845s.323 2.709.97 3.834a6.944 6.944 0 0 0 2.646 2.636c1.117.632 2.372.949 3.76.949 1.64 0 3.067-.413 4.283-1.24 1.215-.827 2.066-1.983 2.552-3.47h-3.355c-.334.695-.803 1.219-1.407 1.573-.604.355-1.302.532-2.094.532-.848 0-1.601-.198-2.26-.594a4.035 4.035 0 0 1-1.542-1.687c-.369-.73-.553-1.574-.553-2.532 0-.959.184-1.82.553-2.543A4.057 4.057 0 0 1 47.5 3.243M68.714.959C67.582.319 66.328 0 64.953 0s-2.612.32-3.751.959a7.155 7.155 0 0 0-2.71 2.656c-.666 1.132-1 2.407-1 3.824 0 1.418.335 2.713 1 3.845a7.155 7.155 0 0 0 2.71 2.657c1.14.639 2.39.958 3.751.958 1.362 0 2.612-.319 3.751-.958a7.085 7.085 0 0 0 2.7-2.657c.659-1.132.99-2.414.99-3.845 0-1.43-.331-2.692-.99-3.824A7.1 7.1 0 0 0 68.714.958m.114 9.045c-.375.736-.896 1.302-1.563 1.698-.667.396-1.438.594-2.313.594-.875 0-1.65-.198-2.324-.594-.674-.396-1.198-.962-1.573-1.698-.375-.737-.563-1.59-.563-2.564 0-.973.188-1.823.563-2.553.375-.729.9-1.288 1.573-1.678.674-.388 1.448-.583 2.324-.583.876 0 1.646.195 2.313.583.667.39 1.188.948 1.563 1.678.376.73.563 1.58.563 2.553 0 .973-.187 1.827-.563 2.564ZM86.708.209l-4.626 10.814L77.455.21h-3.313v14.545h2.917V5.293l3.918 9.46h2.21l3.895-9.46v9.46H90V.21h-3.292ZM2.916.209H0v5.697h2.916V.209ZM2.916 8.823H0v5.93h2.916v-5.93ZM12.065.209H9.15v5.697h2.916V.209Z"/><path fill="#F05323" d="M12.065 5.906H2.916v2.916h9.15V5.906Z"/><path fill="#000" d="M12.065 8.823H9.15v5.93h2.916v-5.93Z"/></svg>